<?xml version="1.0" encoding="utf-8"?>
<!-- Generator: Adobe Illustrator 16.0.0, SVG Export Plug-In . SVG Version: 6.00 Build 0)  -->
<!DOCTYPE svg PUBLIC "-//W3C//DTD SVG 1.1//EN" "http://www.w3.org/Graphics/SVG/1.1/DTD/svg11.dtd">
<svg version="1.1" id="Layer_1" xmlns="http://www.w3.org/2000/svg" xmlns:xlink="http://www.w3.org/1999/xlink" x="0px" y="0px"
	 width="1024px" height="1024px" viewBox="0 0 1024 1024" enable-background="new 0 0 1024 1024" xml:space="preserve">
<g>
	<g>
		<path fill="#F2681F" d="M548.198,446.003l46.17,57.075c3.725,5.939,7.859,11.955,8.474,19.06c0.64,7.231,0.845,14.72-0.333,21.824
			c-1.613,9.779-8.243,15.82-17.907,18.329c-0.704,0.18-1.408,0.346-2.1,0.512c-1.753,6.195-3.302,7.348-9.779,7.335
			c-3.289-0.013-6.579,0-9.881-0.013c-5.363-0.013-7.271-1.498-8.742-6.874h-84.045c-0.141,0.461-0.32,0.986-0.474,1.523
			c-0.973,3.354-3.38,5.273-6.887,5.338c-3.878,0.063-7.757,0.013-11.635,0.025c-6.093,0.013-7.975-1.434-9.306-6.976
			c-2.778-1.05-5.581-1.754-8.052-3.085c-7.654-4.097-12.006-10.637-12.634-19.277c-0.422-5.824-0.422-11.712-0.051-17.536
			c0.346-5.491,3.098-10.316,5.76-15.026c8.461-14.951,18.982-28.455,29.978-41.575c6.195-7.398,12.813-14.438,19.175-21.695
			c0.602-0.691,0.973-1.754,1.063-2.676c0.166-1.74,0-3.507,0.063-5.261c0.154-4.07,3.06-6.988,7.13-7.143
			c2.188-0.089,4.391-0.076,6.579,0c4.058,0.154,6.963,3.085,7.13,7.155c0.09,2.176,0.013,4.365,0.013,6.784h28.288
			c0-2.073-0.013-4.096,0-6.105c0.038-4.852,2.943-7.808,7.757-7.847c1.971-0.013,3.955-0.063,5.926,0.013
			c4.084,0.154,6.964,3.034,7.194,7.104c0,0.076,0.013,0.153,0,0.218v4.121c0,0.23-0.013,0.461-0.052,0.679l0,0
			C546.854,443.443,547.264,444.89,548.198,446.003z M491.098,478.95c0-1.612,0-3.213,0-4.825c0-1.523-0.729-2.305-2.266-2.305
			c-3.213,0-6.426,0.014-9.651,0c-1.523,0-2.304,0.743-2.304,2.279c0,3.213,0,6.425-0.013,9.65c0,1.536,0.742,2.305,2.278,2.305
			c3.213,0,6.426,0,9.651,0c1.522,0,2.304-0.742,2.304-2.278C491.098,482.163,491.098,480.551,491.098,478.95z M511.962,486.042
			c1.612,0,3.213-0.013,4.825,0c1.639,0.013,2.406-0.781,2.394-2.42c-0.013-3.148-0.013-6.284,0-9.434
			c0.013-1.497-0.627-2.368-2.188-2.381c-3.29-0.013-6.579-0.013-9.869,0c-1.421,0-2.163,0.756-2.163,2.177
			c-0.013,3.289-0.013,6.579,0,9.868c0,1.421,0.755,2.15,2.176,2.163C508.749,486.055,510.349,486.042,511.962,486.042z
			 M540.121,486.042c1.613,0,3.213-0.013,4.826,0c1.523,0.013,2.316-0.717,2.316-2.253c0-3.213,0-6.438,0-9.651
			c0-1.511-0.691-2.33-2.253-2.33c-3.212,0-6.438,0-9.65,0c-1.523,0-2.317,0.717-2.317,2.253c0,3.213,0.013,6.438,0,9.651
			c0,1.536,0.729,2.317,2.253,2.317C536.909,486.042,538.521,486.029,540.121,486.042z M491.085,500.173
			c0-1.613-0.025-3.213,0-4.825c0.025-1.767-0.832-2.496-2.561-2.471c-3.071,0.038-6.144,0.038-9.216,0
			c-1.779-0.013-2.496,0.845-2.471,2.56c0.039,3.072,0.039,6.145,0,9.216c-0.013,1.626,0.691,2.458,2.343,2.458
			c3.213-0.013,6.438,0,9.651,0c1.549,0,2.253-0.819,2.24-2.329C491.085,503.232,491.085,501.709,491.085,500.173z M519.181,500.096
			c0-1.612-0.013-3.213,0-4.825c0.013-1.639-0.807-2.394-2.432-2.394c-3.136,0.013-6.285,0.013-9.421,0
			c-1.651-0.013-2.394,0.793-2.381,2.419c0.025,3.136,0.013,6.285,0,9.421c-0.013,1.639,0.794,2.406,2.419,2.394
			c3.136-0.013,6.285-0.013,9.421,0c1.651,0.013,2.406-0.794,2.381-2.419C519.168,503.155,519.181,501.619,519.181,500.096z
			 M540.147,507.11c1.612,0,3.213,0,4.825,0c1.523,0,2.304-0.742,2.304-2.278c0-3.213,0-6.438,0-9.651
			c0-1.536-0.755-2.291-2.278-2.291c-3.213,0-6.438,0-9.65-0.013c-1.536,0-2.292,0.742-2.292,2.278c0,3.213,0.013,6.438,0,9.651
			c0,1.523,0.729,2.304,2.266,2.304C536.935,507.11,538.547,507.11,540.147,507.11z M483.814,528.18
			c1.536,0,3.072-0.039,4.608,0.013c1.817,0.063,2.726-0.679,2.7-2.573c-0.051-3.072-0.038-6.144,0-9.203
			c0.013-1.626-0.691-2.458-2.355-2.458c-3.212,0.013-6.438,0-9.65,0c-1.408,0-2.215,0.666-2.228,2.112
			c-0.013,3.29-0.013,6.579,0,9.869c0,1.536,0.807,2.266,2.329,2.253C480.742,528.166,482.278,528.18,483.814,528.18z
			 M519.181,521.126c0-1.535-0.038-3.071,0.013-4.607c0.052-1.716-0.665-2.599-2.457-2.573c-3.072,0.039-6.145,0.039-9.203,0
			c-1.716-0.025-2.599,0.691-2.573,2.458c0.025,3.136,0.013,6.285,0,9.434c-0.013,1.523,0.691,2.343,2.228,2.343
			c3.213,0.013,6.426,0,9.65,0c1.664,0,2.381-0.846,2.355-2.458C519.168,524.198,519.181,522.662,519.181,521.126z M533.043,521.037
			c0,1.612,0.013,3.213,0,4.825c-0.013,1.523,0.704,2.317,2.253,2.317c3.213,0,6.426-0.014,9.651,0c1.523,0,2.316-0.73,2.316-2.266
			c0.013-3.213,0-6.426,0.013-9.651c0-1.523-0.717-2.317-2.265-2.317c-3.213,0-6.426,0-9.651,0c-1.677,0-2.355,0.871-2.33,2.483
			C533.068,517.965,533.043,519.501,533.043,521.037z"/>
		<path fill="#F2681F" d="M512.218,387.712c16.524,0.179,33.036,0.794,49.369,3.533c12.724,2.125,25.19,5.146,36.493,11.7
			c8.922,5.184,15.859,12.108,18.073,22.554c0.87,4.096,1.165,8.422,1.05,12.62c-0.205,6.95-4.634,11.443-11.737,12.186
			c-4.058,0.423-8.167,0.436-12.263,0.423c-6.285-0.025-12.595,0.09-18.842-0.448c-8.191-0.704-13.081-6.323-13.005-14.566
			c0.064-7.04-3.187-11.789-9.318-14.81c-5.645-2.79-11.725-4.006-17.907-4.762c-13.555-1.664-27.136-1.664-40.717-0.409
			c-6.694,0.614-13.324,1.715-19.597,4.352c-7.13,2.995-11.213,7.923-11.085,16.115c0.115,7.821-4.89,13.185-12.813,14.093
			c-4.121,0.474-8.307,0.474-12.467,0.461c-6.208-0.025-12.441,0.09-18.611-0.448c-7.706-0.665-11.738-5.581-12.032-13.324
			c-0.652-17.345,7.987-28.698,22.963-36.045c11.072-5.44,22.925-8.192,35.009-10.048
			C480.486,388.441,496.333,387.827,512.218,387.712z"/>
	</g>
	<g>
		<g>
			<circle fill="#F2681F" cx="264.793" cy="557.593" r="54.375"/>
			<path fill="#F2681F" d="M191.373,802.138h145.126c11.674,0,21.491-9.28,21.594-20.954c0-0.089,0-0.166,0-0.256V666.649
				c0-10.022-4.762-19.52-12.979-25.241c-6.732-4.686-31.309-8.474-46.399-8.474l-24.308,59.059l-4.044-34.035l8.985-13.529
				c1.715-3.008,1.306-6.835-1.254-9.408c-1.51-1.522-3.635-2.266-5.773-2.266h-16.806c-2.138,0-4.275,0.743-5.773,2.266
				c-2.547,2.573-2.97,6.413-1.254,9.408l8.973,13.529l-4.032,34.062l-23.872-58.074c-13.376,0-37.325,2.688-44.019,6.311
				c-9.856,5.325-15.783,15.834-15.783,27.033v113.639c0,0.09,0,0.167,0,0.256C169.882,792.857,179.687,802.138,191.373,802.138z"/>
		</g>
		<g>
			<circle fill="#F2681F" cx="513.882" cy="71.437" r="54.374"/>
			<path fill="#F2681F" d="M440.461,315.981h145.126c11.674,0,21.491-9.28,21.594-20.954c0-0.09,0-0.167,0-0.256V180.48
				c0-10.022-4.762-19.52-12.979-25.242c-6.732-4.685-31.309-8.474-46.399-8.474l-24.308,59.06l-4.045-34.035l8.986-13.53
				c1.715-3.008,1.306-6.835-1.255-9.408c-1.511-1.523-3.635-2.266-5.772-2.266h-16.807c-2.138,0-4.275,0.743-5.772,2.266
				c-2.548,2.573-2.97,6.413-1.255,9.408l8.973,13.53l-4.031,34.061l-23.872-58.074c-13.376,0-37.325,2.688-44.02,6.311
				c-9.856,5.325-15.782,15.833-15.782,27.034v113.638c0,0.09,0,0.167,0,0.256C418.97,306.701,428.787,315.981,440.461,315.981z"/>
		</g>
		<g>
			<circle fill="#F2681F" cx="760.935" cy="557.593" r="54.375"/>
			<path fill="#F2681F" d="M687.501,802.138h145.126c11.674,0,21.491-9.28,21.594-20.954c0-0.089,0-0.166,0-0.256V666.649
				c0-10.022-4.762-19.52-12.979-25.241c-6.732-4.686-31.309-8.474-46.399-8.474l-24.308,59.059l-4.045-34.035l8.986-13.529
				c1.715-3.008,1.306-6.835-1.255-9.408c-1.51-1.522-3.635-2.266-5.772-2.266h-16.807c-2.138,0-4.275,0.743-5.772,2.266
				c-2.548,2.573-2.97,6.413-1.255,9.408l8.973,13.529l-4.032,34.062l-23.871-58.074c-13.376,0-37.325,2.688-44.02,6.311
				c-9.856,5.325-15.782,15.834-15.782,27.033v113.639c0,0.09,0,0.167,0,0.256C666.022,792.857,675.827,802.138,687.501,802.138z"/>
			<path fill="#F2681F" d="M687.501,802.138h145.126c11.674,0,21.491-9.28,21.594-20.954c0-0.089,0-0.166,0-0.256V666.649
				c0-10.022-4.762-19.52-12.979-25.241c-6.732-4.686-31.309-8.474-46.399-8.474l-24.308,59.059l-4.045-34.035l8.986-13.529
				c1.715-3.008,1.306-6.835-1.255-9.408c-1.51-1.522-3.635-2.266-5.772-2.266h-16.807c-2.138,0-4.275,0.743-5.772,2.266
				c-2.548,2.573-2.97,6.413-1.255,9.408l8.973,13.529l-4.032,34.062l-23.871-58.074c-13.376,0-37.325,2.688-44.02,6.311
				c-9.856,5.325-15.782,15.834-15.782,27.033v113.639c0,0.09,0,0.167,0,0.256C666.022,792.857,675.827,802.138,687.501,802.138z"/>
		</g>
	</g>
	<g>
		<path fill="#F2681F" d="M747.968,467.674c4.237-0.614,8.563-0.935,12.967-0.935c11.571,0,22.644,2.201,32.832,6.17
			c-2.228-105.344-62.503-196.66-150.093-243.137v53.082C703.795,323.354,744.346,390.771,747.968,467.674z"/>
		<path fill="#F2681F" d="M264.793,466.739c3.814,0,7.565,0.269,11.251,0.717c3.737-77.683,45.146-145.639,106.329-185.958v-52.813
			c-88.883,46.234-150.156,138.445-152.153,244.902C240.883,469.184,252.557,466.739,264.793,466.739z"/>
		<path fill="#F2681F" d="M512,715.188c-42.714,0-82.816-11.405-117.427-31.309v51.251c35.763,16.461,75.532,25.677,117.427,25.677
			s81.651-9.216,117.428-25.677v-51.238C594.816,703.795,554.714,715.188,512,715.188z"/>
	</g>
</g>
<text transform="matrix(1 0 0 1 102.3984 1011.2031)" font-family="'Arial-BoldMT'" font-size="64">Created by Arafat Uddin</text>
<text transform="matrix(1 0 0 1 102.3984 1075.2031)" font-family="'Arial-BoldMT'" font-size="64">from the Noun Project</text>
</svg>
