<?xml version="1.0" encoding="utf-8"?>
<!-- Generator: Adobe Illustrator 16.0.0, SVG Export Plug-In . SVG Version: 6.00 Build 0)  -->
<!DOCTYPE svg PUBLIC "-//W3C//DTD SVG 1.1//EN" "http://www.w3.org/Graphics/SVG/1.1/DTD/svg11.dtd">
<svg version="1.1"
	 id="Layer_1" xmlns:sodipodi="http://sodipodi.sourceforge.net/DTD/sodipodi-0.dtd" xmlns:inkscape="http://www.inkscape.org/namespaces/inkscape" xmlns:svg="http://www.w3.org/2000/svg" xmlns:cc="http://creativecommons.org/ns#" xmlns:dc="http://purl.org/dc/elements/1.1/" xmlns:rdf="http://www.w3.org/1999/02/22-rdf-syntax-ns#"
	 xmlns="http://www.w3.org/2000/svg" xmlns:xlink="http://www.w3.org/1999/xlink" x="0px" y="0px" width="1024px" height="1024px"
	 viewBox="0 0 1024 1024" enable-background="new 0 0 1024 1024" xml:space="preserve">
<g transform="translate(0,-952.36218)">
	<path fill="#F2681F" d="M626.176,1017.954c-57.729,0-105.867,41.129-119.04,96l-105.216-29.952c-3.718-0.865-7.104-0.295-9.216,0
		l-229.376,65.536c-6.786,1.989-11.84,8.801-11.776,15.872v524.288c0.082,10.099,11.3,18.454,20.992,15.615l224.769-64.256
		l224.768,64.256c2.988,0.876,6.228,0.876,9.216,0l229.376-65.536c6.703-1.965,11.73-8.629,11.776-15.615v-524.289
		c0.09-10.185-11.218-18.736-20.992-15.872l-105.472,30.208C732.475,1054.505,679.37,1017.634,626.176,1017.954L626.176,1017.954z
		 M626.176,1050.722c49.699,0,90.369,41.259,90.369,93.439c0,10.828-3.598,27.578-7.425,37.888
		c-27.374,58.14-55.097,116.251-82.688,174.337c-27.471-58.144-55.433-116.142-82.688-174.337
		c-3.821-10.342-7.424-27.088-7.424-37.888C538.363,1084.646,583.115,1051.146,626.176,1050.722z M626.43,1091.682
		c-26.951,0-49.151,22.201-49.151,49.152c0,26.951,22.2,49.152,49.151,49.152c26.95,0,49.152-22.2,49.152-49.152
		C675.582,1113.882,653.38,1091.682,626.43,1091.682L626.43,1091.682z M380.926,1121.378v490.241l-196.608,56.319v-490.24
		L380.926,1121.378z M413.693,1121.378l90.112,25.855c0.45,16.172,4.227,33.206,9.216,46.593
		c32.222,68.307,64.851,136.73,97.28,205.055v269.057l-196.608-56.319V1121.378z M839.678,1121.378v490.241l-196.608,56.319v-270.08
		c31.874-68.156,65.275-135.819,96.769-204.032c5.029-13.425,8.768-30.436,9.216-46.593L839.678,1121.378z M626.43,1124.45
		c9.241,0,16.385,7.142,16.385,16.384c0,9.242-7.144,16.384-16.385,16.384c-9.244,0-16.384-7.141-16.384-16.384
		C610.046,1131.591,617.186,1124.45,626.43,1124.45L626.43,1124.45z"/>
</g>
<text transform="matrix(1 0 0 1 102.3984 942.0781)" font-family="'Arial-BoldMT'" font-size="40.96">Created by Aya Sofya</text>
<text transform="matrix(1 0 0 1 102.3984 983.0391)" font-family="'Arial-BoldMT'" font-size="40.96">from the Noun Project</text>
</svg>
